<?xml version="1.0" encoding="UTF-8"?>
<!-- Entypo (http://www.entypo.com/) - Copyright 2014 Daniel Bruce - CC BY-SA 3.0 (https://creativecommons.org/licenses/by-sa/3.0/) -->
<svg width="80" height="80" xmlns="http://www.w3.org/2000/svg">
<g opacity="0.2">
<path d="m62.638298,59.191479c11.574463,4.085102 17.361702,7.546124 17.361702,10.382984c0,0 0,9.021271 0,9.021271c0,0 -40,0 -40,0c0,0 -40,0 -40,0c0,0 0,-9.021271 0,-9.021271c0,-2.836861 5.787234,-6.297882 17.3617,-10.382984c5.333363,-1.929108 8.96451,-3.886555 10.89362,-5.872334c1.929104,-1.985794 2.893616,-4.680855 2.893616,-8.08511c0,-1.248257 -0.624088,-2.638302 -1.872341,-4.170212c-1.248253,-1.531918 -2.155998,-3.60281 -2.723408,-6.212769c-0.113445,-0.680851 -0.368761,-1.19149 -0.765951,-1.53191c-0.39719,-0.340424 -0.794298,-0.567398 -1.191492,-0.680851c-0.39719,-0.113445 -0.794298,-0.595741 -1.191488,-1.446802c-0.397192,-0.851063 -0.652512,-2.07089 -0.765957,-3.659573c0,-0.907829 0.14187,-1.645363 0.425531,-2.212765c0.283659,-0.567406 0.53898,-0.907831 0.765957,-1.021276c0,0 0.340424,-0.340427 0.340424,-0.340427c-0.453871,-2.836851 -0.794296,-5.333361 -1.021275,-7.489367c-0.226976,-3.06383 0.936169,-6.241106 3.489363,-9.531915c2.553188,-3.290807 7.007065,-4.936169 13.361702,-4.936169c6.354637,0 10.836857,1.645362 13.446815,4.936169c2.609943,3.290809 3.744671,6.468085 3.404251,9.531915c0,0 -1.021286,7.489367 -1.021286,7.489367c1.021286,0.453873 1.531918,1.645365 1.531918,3.574469c-0.113449,1.588682 -0.368767,2.80851 -0.765957,3.659573c-0.39719,0.851061 -0.7943,1.333357 -1.19149,1.446802c-0.397194,0.113453 -0.794292,0.340427 -1.191486,0.680851c-0.397202,0.34042 -0.652508,0.851059 -0.765949,1.53191c-0.453884,2.723404 -1.333363,4.822723 -2.638309,6.297871c-1.304932,1.475155 -1.957447,2.836853 -1.957447,4.08511c0,3.404255 0.992939,6.099316 2.978729,8.08511c1.985775,1.985779 5.588676,3.943226 10.80851,5.872334c0,0 0,0 0,0"/>
</g>
</svg>
