<?xml version="1.0" encoding="UTF-8"?>
<!-- Font Awesome (https://fortawesome.github.io/Font-Awesome/) - Copyright 2014 Dave Gandy - SIL OFL 1.1 -->
<svg width="200" height="160" viewBox="20 16 200 160" xmlns="http://www.w3.org/2000/svg">
<g opacity="0.2">
<path d="M120.167,76.041c8.477,0,15.563,2.927,21.257,8.781c5.696,5.855,8.543,12.907,8.543,21.156c0,8.25-2.913,15.303-8.742,21.155c-5.827,5.855-12.847,8.782-21.058,8.782c-8.212,0-15.231-2.927-21.059-8.782c-5.828-5.853-8.741-12.905-8.741-21.155c0-8.249,2.913-15.301,8.741-21.156C104.936,78.968,111.955,76.041,120.167,76.041L120.167,76.041 M199.633,46.103c5.563,0,10.265,1.93,14.106,5.788c3.84,3.859,5.761,8.583,5.761,14.17v89.812c0,5.323-1.921,9.98-5.761,13.972c-3.842,3.991-8.543,5.987-14.106,5.987H40.7c-5.298,0-9.933-1.996-13.907-5.987s-5.96-8.648-5.96-13.972V66.061c0-5.587,1.986-10.312,5.96-14.17c3.974-3.858,8.609-5.788,13.907-5.788h23.84c3.709,0,6.357-1.996,7.947-5.987l5.96-18.362c1.324-3.726,3.973-5.588,7.946-5.588h67.546c3.974,0,6.623,1.863,7.948,5.588l5.959,18.362c1.589,3.991,4.238,5.987,7.946,5.987H199.633L199.633,46.103 M120.167,155.873c13.774,0,25.495-4.855,35.165-14.568c9.667-9.714,14.501-21.488,14.501-35.327c0-13.837-4.834-25.613-14.501-35.326c-9.67-9.713-21.391-14.57-35.165-14.57s-25.496,4.856-35.164,14.57C75.334,80.365,70.5,92.141,70.5,105.978c0,13.839,4.834,25.613,14.503,35.327C94.671,151.018,106.393,155.873,120.167,155.873L120.167,155.873 M192.879,80.032c1.854,0,3.443-0.732,4.768-2.195c1.324-1.464,1.986-3.127,1.986-4.99c0-1.863-0.662-3.46-1.986-4.79c-1.324-1.331-2.913-1.996-4.768-1.996c-4.768,0-7.151,2.262-7.151,6.786c0,2.129,0.728,3.858,2.185,5.189S191.024,80.032,192.879,80.032L192.879,80.032"/>
</g>
</svg>
