<?xml version="1.0" encoding="UTF-8"?>
<!-- Font Awesome (https://fortawesome.github.io/Font-Awesome/) - Copyright 2014 Dave Gandy - SIL OFL 1.1 -->
<svg width="240" height="192" xmlns="http://www.w3.org/2000/svg">
<g opacity="0.2">
<path d="m120.000008,72c10.240059,0 18.799919,3.520081 25.68,10.560005c6.880081,7.039917 10.320007,15.520065 10.320007,25.44001c0,9.919914 -3.520081,18.40007 -10.559998,25.439987c-7.039917,7.039932 -15.520081,10.559998 -25.44001,10.559998c-9.919922,0 -18.400078,-3.520065 -25.440002,-10.559998c-7.039925,-7.039917 -10.559998,-15.520073 -10.559998,-25.439987c0,-9.919945 3.520073,-18.400093 10.559998,-25.44001c7.039925,-7.039925 15.520081,-10.560005 25.440002,-10.560005c0,0 0,0 0,0m96.000008,-36c6.720001,0 12.400085,2.320087 17.040009,6.960003c4.639908,4.639923 6.959991,10.319996 6.959991,17.040001c0,0 0,108.000011 0,108.000011c0,6.400085 -2.320084,12 -6.959991,16.800003c-4.639923,4.800018 -10.320007,7.199982 -17.040009,7.199982c0,0 -192.000015,0 -192.000015,0c-6.400078,0 -12,-2.399963 -16.8,-7.199982c-4.8,-4.800003 -7.2,-10.399918 -7.2,-16.800003c0,0 0,-108.000011 0,-108.000011c0,-6.720005 2.4,-12.400078 7.2,-17.040001c4.8,-4.639915 10.399922,-6.960003 16.8,-6.960003c0,0 28.800003,0 28.800003,0c4.480091,0 7.68,-2.399994 9.600006,-7.199997c0,0 7.199989,-22.080003 7.199989,-22.080003c1.60009,-4.480078 4.800003,-6.72 9.600014,-6.72c0,0 81.600006,0 81.600006,0c4.799988,0 7.999908,2.239922 9.599991,6.72c0,0 7.199982,22.080003 7.199982,22.080003c1.919998,4.800003 5.119949,7.199997 9.600021,7.199997c0,0 28.800003,0 28.800003,0c0,0 0,0 0,0m-96.000008,132.000015c16.639931,0 30.799919,-5.83992 42.479988,-17.520004c11.680084,-11.680084 17.52002,-25.840088 17.52002,-42.479996c0,-16.639938 -5.839935,-30.799934 -17.52002,-42.480011c-11.680069,-11.68008 -25.840057,-17.520008 -42.479988,-17.520008c-16.639915,0 -30.799911,5.839928 -42.480003,17.520008c-11.680077,11.680077 -17.52,25.840073 -17.52,42.480011c0,16.639908 5.839924,30.799911 17.52,42.479996c11.680084,11.680084 25.840088,17.520004 42.480003,17.520004c0,0 0,0 0,0m87.840019,-91.200012c2.239914,0 4.159912,-0.880074 5.759979,-2.639999c1.600082,-1.759918 2.400009,-3.760071 2.400009,-5.999992c0,-2.239922 -0.799927,-4.159927 -2.400009,-5.760006c-1.600067,-1.600079 -3.520065,-2.400002 -5.759979,-2.400002c-5.760025,0 -8.64003,2.719921 -8.64003,8.160007c0,2.560066 0.880096,4.639923 2.64003,6.23999c1.759918,1.600082 3.760071,2.400002 6,2.400002c0,0 0,0 0,0"/>
</g>
</svg>
